<?xml version="1.0" encoding="utf-8"?>
<svg xmlns="http://www.w3.org/2000/svg" xmlns:xlink="http://www.w3.org/1999/xlink" style="margin: auto; background: rgb(255, 255, 255); display: block; shape-rendering: auto;" width="557px" height="557px" viewBox="0 0 100 100" preserveAspectRatio="xMidYMid">
<g transform="rotate(0 50 50)">
  <rect x="49.5" y="14.5" rx="0.5" ry="26.5" width="1" height="53" fill="#71fe8a">
    <animate attributeName="opacity" values="1;0" keyTimes="0;1" dur="0.9174311926605504s" begin="-0.9033168666196189s" repeatCount="indefinite"></animate>
  </rect>
</g><g transform="rotate(5.538461538461538 50 50)">
  <rect x="49.5" y="14.5" rx="0.5" ry="26.5" width="1" height="53" fill="#71fe8a">
    <animate attributeName="opacity" values="1;0" keyTimes="0;1" dur="0.9174311926605504s" begin="-0.8892025405786873s" repeatCount="indefinite"></animate>
  </rect>
</g><g transform="rotate(11.076923076923077 50 50)">
  <rect x="49.5" y="14.5" rx="0.5" ry="26.5" width="1" height="53" fill="#71fe8a">
    <animate attributeName="opacity" values="1;0" keyTimes="0;1" dur="0.9174311926605504s" begin="-0.8750882145377558s" repeatCount="indefinite"></animate>
  </rect>
</g><g transform="rotate(16.615384615384617 50 50)">
  <rect x="49.5" y="14.5" rx="0.5" ry="26.5" width="1" height="53" fill="#71fe8a">
    <animate attributeName="opacity" values="1;0" keyTimes="0;1" dur="0.9174311926605504s" begin="-0.8609738884968242s" repeatCount="indefinite"></animate>
  </rect>
</g><g transform="rotate(22.153846153846153 50 50)">
  <rect x="49.5" y="14.5" rx="0.5" ry="26.5" width="1" height="53" fill="#71fe8a">
    <animate attributeName="opacity" values="1;0" keyTimes="0;1" dur="0.9174311926605504s" begin="-0.8468595624558927s" repeatCount="indefinite"></animate>
  </rect>
</g><g transform="rotate(27.692307692307693 50 50)">
  <rect x="49.5" y="14.5" rx="0.5" ry="26.5" width="1" height="53" fill="#71fe8a">
    <animate attributeName="opacity" values="1;0" keyTimes="0;1" dur="0.9174311926605504s" begin="-0.8327452364149611s" repeatCount="indefinite"></animate>
  </rect>
</g><g transform="rotate(33.23076923076923 50 50)">
  <rect x="49.5" y="14.5" rx="0.5" ry="26.5" width="1" height="53" fill="#71fe8a">
    <animate attributeName="opacity" values="1;0" keyTimes="0;1" dur="0.9174311926605504s" begin="-0.8186309103740296s" repeatCount="indefinite"></animate>
  </rect>
</g><g transform="rotate(38.76923076923077 50 50)">
  <rect x="49.5" y="14.5" rx="0.5" ry="26.5" width="1" height="53" fill="#71fe8a">
    <animate attributeName="opacity" values="1;0" keyTimes="0;1" dur="0.9174311926605504s" begin="-0.804516584333098s" repeatCount="indefinite"></animate>
  </rect>
</g><g transform="rotate(44.30769230769231 50 50)">
  <rect x="49.5" y="14.5" rx="0.5" ry="26.5" width="1" height="53" fill="#71fe8a">
    <animate attributeName="opacity" values="1;0" keyTimes="0;1" dur="0.9174311926605504s" begin="-0.7904022582921665s" repeatCount="indefinite"></animate>
  </rect>
</g><g transform="rotate(49.84615384615385 50 50)">
  <rect x="49.5" y="14.5" rx="0.5" ry="26.5" width="1" height="53" fill="#71fe8a">
    <animate attributeName="opacity" values="1;0" keyTimes="0;1" dur="0.9174311926605504s" begin="-0.7762879322512349s" repeatCount="indefinite"></animate>
  </rect>
</g><g transform="rotate(55.38461538461539 50 50)">
  <rect x="49.5" y="14.5" rx="0.5" ry="26.5" width="1" height="53" fill="#71fe8a">
    <animate attributeName="opacity" values="1;0" keyTimes="0;1" dur="0.9174311926605504s" begin="-0.7621736062103034s" repeatCount="indefinite"></animate>
  </rect>
</g><g transform="rotate(60.92307692307692 50 50)">
  <rect x="49.5" y="14.5" rx="0.5" ry="26.5" width="1" height="53" fill="#71fe8a">
    <animate attributeName="opacity" values="1;0" keyTimes="0;1" dur="0.9174311926605504s" begin="-0.7480592801693718s" repeatCount="indefinite"></animate>
  </rect>
</g><g transform="rotate(66.46153846153847 50 50)">
  <rect x="49.5" y="14.5" rx="0.5" ry="26.5" width="1" height="53" fill="#71fe8a">
    <animate attributeName="opacity" values="1;0" keyTimes="0;1" dur="0.9174311926605504s" begin="-0.7339449541284403s" repeatCount="indefinite"></animate>
  </rect>
</g><g transform="rotate(72 50 50)">
  <rect x="49.5" y="14.5" rx="0.5" ry="26.5" width="1" height="53" fill="#71fe8a">
    <animate attributeName="opacity" values="1;0" keyTimes="0;1" dur="0.9174311926605504s" begin="-0.7198306280875088s" repeatCount="indefinite"></animate>
  </rect>
</g><g transform="rotate(77.53846153846153 50 50)">
  <rect x="49.5" y="14.5" rx="0.5" ry="26.5" width="1" height="53" fill="#71fe8a">
    <animate attributeName="opacity" values="1;0" keyTimes="0;1" dur="0.9174311926605504s" begin="-0.7057163020465772s" repeatCount="indefinite"></animate>
  </rect>
</g><g transform="rotate(83.07692307692308 50 50)">
  <rect x="49.5" y="14.5" rx="0.5" ry="26.5" width="1" height="53" fill="#71fe8a">
    <animate attributeName="opacity" values="1;0" keyTimes="0;1" dur="0.9174311926605504s" begin="-0.6916019760056457s" repeatCount="indefinite"></animate>
  </rect>
</g><g transform="rotate(88.61538461538461 50 50)">
  <rect x="49.5" y="14.5" rx="0.5" ry="26.5" width="1" height="53" fill="#71fe8a">
    <animate attributeName="opacity" values="1;0" keyTimes="0;1" dur="0.9174311926605504s" begin="-0.6774876499647141s" repeatCount="indefinite"></animate>
  </rect>
</g><g transform="rotate(94.15384615384616 50 50)">
  <rect x="49.5" y="14.5" rx="0.5" ry="26.5" width="1" height="53" fill="#71fe8a">
    <animate attributeName="opacity" values="1;0" keyTimes="0;1" dur="0.9174311926605504s" begin="-0.6633733239237826s" repeatCount="indefinite"></animate>
  </rect>
</g><g transform="rotate(99.6923076923077 50 50)">
  <rect x="49.5" y="14.5" rx="0.5" ry="26.5" width="1" height="53" fill="#71fe8a">
    <animate attributeName="opacity" values="1;0" keyTimes="0;1" dur="0.9174311926605504s" begin="-0.649258997882851s" repeatCount="indefinite"></animate>
  </rect>
</g><g transform="rotate(105.23076923076923 50 50)">
  <rect x="49.5" y="14.5" rx="0.5" ry="26.5" width="1" height="53" fill="#71fe8a">
    <animate attributeName="opacity" values="1;0" keyTimes="0;1" dur="0.9174311926605504s" begin="-0.6351446718419195s" repeatCount="indefinite"></animate>
  </rect>
</g><g transform="rotate(110.76923076923077 50 50)">
  <rect x="49.5" y="14.5" rx="0.5" ry="26.5" width="1" height="53" fill="#71fe8a">
    <animate attributeName="opacity" values="1;0" keyTimes="0;1" dur="0.9174311926605504s" begin="-0.6210303458009879s" repeatCount="indefinite"></animate>
  </rect>
</g><g transform="rotate(116.3076923076923 50 50)">
  <rect x="49.5" y="14.5" rx="0.5" ry="26.5" width="1" height="53" fill="#71fe8a">
    <animate attributeName="opacity" values="1;0" keyTimes="0;1" dur="0.9174311926605504s" begin="-0.6069160197600564s" repeatCount="indefinite"></animate>
  </rect>
</g><g transform="rotate(121.84615384615384 50 50)">
  <rect x="49.5" y="14.5" rx="0.5" ry="26.5" width="1" height="53" fill="#71fe8a">
    <animate attributeName="opacity" values="1;0" keyTimes="0;1" dur="0.9174311926605504s" begin="-0.5928016937191248s" repeatCount="indefinite"></animate>
  </rect>
</g><g transform="rotate(127.38461538461539 50 50)">
  <rect x="49.5" y="14.5" rx="0.5" ry="26.5" width="1" height="53" fill="#71fe8a">
    <animate attributeName="opacity" values="1;0" keyTimes="0;1" dur="0.9174311926605504s" begin="-0.5786873676781933s" repeatCount="indefinite"></animate>
  </rect>
</g><g transform="rotate(132.92307692307693 50 50)">
  <rect x="49.5" y="14.5" rx="0.5" ry="26.5" width="1" height="53" fill="#71fe8a">
    <animate attributeName="opacity" values="1;0" keyTimes="0;1" dur="0.9174311926605504s" begin="-0.5645730416372617s" repeatCount="indefinite"></animate>
  </rect>
</g><g transform="rotate(138.46153846153845 50 50)">
  <rect x="49.5" y="14.5" rx="0.5" ry="26.5" width="1" height="53" fill="#71fe8a">
    <animate attributeName="opacity" values="1;0" keyTimes="0;1" dur="0.9174311926605504s" begin="-0.5504587155963302s" repeatCount="indefinite"></animate>
  </rect>
</g><g transform="rotate(144 50 50)">
  <rect x="49.5" y="14.5" rx="0.5" ry="26.5" width="1" height="53" fill="#71fe8a">
    <animate attributeName="opacity" values="1;0" keyTimes="0;1" dur="0.9174311926605504s" begin="-0.5363443895553986s" repeatCount="indefinite"></animate>
  </rect>
</g><g transform="rotate(149.53846153846155 50 50)">
  <rect x="49.5" y="14.5" rx="0.5" ry="26.5" width="1" height="53" fill="#71fe8a">
    <animate attributeName="opacity" values="1;0" keyTimes="0;1" dur="0.9174311926605504s" begin="-0.5222300635144671s" repeatCount="indefinite"></animate>
  </rect>
</g><g transform="rotate(155.07692307692307 50 50)">
  <rect x="49.5" y="14.5" rx="0.5" ry="26.5" width="1" height="53" fill="#71fe8a">
    <animate attributeName="opacity" values="1;0" keyTimes="0;1" dur="0.9174311926605504s" begin="-0.5081157374735356s" repeatCount="indefinite"></animate>
  </rect>
</g><g transform="rotate(160.6153846153846 50 50)">
  <rect x="49.5" y="14.5" rx="0.5" ry="26.5" width="1" height="53" fill="#71fe8a">
    <animate attributeName="opacity" values="1;0" keyTimes="0;1" dur="0.9174311926605504s" begin="-0.494001411432604s" repeatCount="indefinite"></animate>
  </rect>
</g><g transform="rotate(166.15384615384616 50 50)">
  <rect x="49.5" y="14.5" rx="0.5" ry="26.5" width="1" height="53" fill="#71fe8a">
    <animate attributeName="opacity" values="1;0" keyTimes="0;1" dur="0.9174311926605504s" begin="-0.47988708539167246s" repeatCount="indefinite"></animate>
  </rect>
</g><g transform="rotate(171.69230769230768 50 50)">
  <rect x="49.5" y="14.5" rx="0.5" ry="26.5" width="1" height="53" fill="#71fe8a">
    <animate attributeName="opacity" values="1;0" keyTimes="0;1" dur="0.9174311926605504s" begin="-0.465772759350741s" repeatCount="indefinite"></animate>
  </rect>
</g><g transform="rotate(177.23076923076923 50 50)">
  <rect x="49.5" y="14.5" rx="0.5" ry="26.5" width="1" height="53" fill="#71fe8a">
    <animate attributeName="opacity" values="1;0" keyTimes="0;1" dur="0.9174311926605504s" begin="-0.4516584333098094s" repeatCount="indefinite"></animate>
  </rect>
</g><g transform="rotate(182.76923076923077 50 50)">
  <rect x="49.5" y="14.5" rx="0.5" ry="26.5" width="1" height="53" fill="#71fe8a">
    <animate attributeName="opacity" values="1;0" keyTimes="0;1" dur="0.9174311926605504s" begin="-0.4375441072688779s" repeatCount="indefinite"></animate>
  </rect>
</g><g transform="rotate(188.30769230769232 50 50)">
  <rect x="49.5" y="14.5" rx="0.5" ry="26.5" width="1" height="53" fill="#71fe8a">
    <animate attributeName="opacity" values="1;0" keyTimes="0;1" dur="0.9174311926605504s" begin="-0.42342978122794633s" repeatCount="indefinite"></animate>
  </rect>
</g><g transform="rotate(193.84615384615384 50 50)">
  <rect x="49.5" y="14.5" rx="0.5" ry="26.5" width="1" height="53" fill="#71fe8a">
    <animate attributeName="opacity" values="1;0" keyTimes="0;1" dur="0.9174311926605504s" begin="-0.4093154551870148s" repeatCount="indefinite"></animate>
  </rect>
</g><g transform="rotate(199.3846153846154 50 50)">
  <rect x="49.5" y="14.5" rx="0.5" ry="26.5" width="1" height="53" fill="#71fe8a">
    <animate attributeName="opacity" values="1;0" keyTimes="0;1" dur="0.9174311926605504s" begin="-0.39520112914608324s" repeatCount="indefinite"></animate>
  </rect>
</g><g transform="rotate(204.92307692307693 50 50)">
  <rect x="49.5" y="14.5" rx="0.5" ry="26.5" width="1" height="53" fill="#71fe8a">
    <animate attributeName="opacity" values="1;0" keyTimes="0;1" dur="0.9174311926605504s" begin="-0.3810868031051517s" repeatCount="indefinite"></animate>
  </rect>
</g><g transform="rotate(210.46153846153845 50 50)">
  <rect x="49.5" y="14.5" rx="0.5" ry="26.5" width="1" height="53" fill="#71fe8a">
    <animate attributeName="opacity" values="1;0" keyTimes="0;1" dur="0.9174311926605504s" begin="-0.36697247706422015s" repeatCount="indefinite"></animate>
  </rect>
</g><g transform="rotate(216 50 50)">
  <rect x="49.5" y="14.5" rx="0.5" ry="26.5" width="1" height="53" fill="#71fe8a">
    <animate attributeName="opacity" values="1;0" keyTimes="0;1" dur="0.9174311926605504s" begin="-0.3528581510232886s" repeatCount="indefinite"></animate>
  </rect>
</g><g transform="rotate(221.53846153846155 50 50)">
  <rect x="49.5" y="14.5" rx="0.5" ry="26.5" width="1" height="53" fill="#71fe8a">
    <animate attributeName="opacity" values="1;0" keyTimes="0;1" dur="0.9174311926605504s" begin="-0.33874382498235706s" repeatCount="indefinite"></animate>
  </rect>
</g><g transform="rotate(227.07692307692307 50 50)">
  <rect x="49.5" y="14.5" rx="0.5" ry="26.5" width="1" height="53" fill="#71fe8a">
    <animate attributeName="opacity" values="1;0" keyTimes="0;1" dur="0.9174311926605504s" begin="-0.3246294989414255s" repeatCount="indefinite"></animate>
  </rect>
</g><g transform="rotate(232.6153846153846 50 50)">
  <rect x="49.5" y="14.5" rx="0.5" ry="26.5" width="1" height="53" fill="#71fe8a">
    <animate attributeName="opacity" values="1;0" keyTimes="0;1" dur="0.9174311926605504s" begin="-0.31051517290049396s" repeatCount="indefinite"></animate>
  </rect>
</g><g transform="rotate(238.15384615384616 50 50)">
  <rect x="49.5" y="14.5" rx="0.5" ry="26.5" width="1" height="53" fill="#71fe8a">
    <animate attributeName="opacity" values="1;0" keyTimes="0;1" dur="0.9174311926605504s" begin="-0.2964008468595624s" repeatCount="indefinite"></animate>
  </rect>
</g><g transform="rotate(243.69230769230768 50 50)">
  <rect x="49.5" y="14.5" rx="0.5" ry="26.5" width="1" height="53" fill="#71fe8a">
    <animate attributeName="opacity" values="1;0" keyTimes="0;1" dur="0.9174311926605504s" begin="-0.28228652081863087s" repeatCount="indefinite"></animate>
  </rect>
</g><g transform="rotate(249.23076923076923 50 50)">
  <rect x="49.5" y="14.5" rx="0.5" ry="26.5" width="1" height="53" fill="#71fe8a">
    <animate attributeName="opacity" values="1;0" keyTimes="0;1" dur="0.9174311926605504s" begin="-0.2681721947776993s" repeatCount="indefinite"></animate>
  </rect>
</g><g transform="rotate(254.76923076923077 50 50)">
  <rect x="49.5" y="14.5" rx="0.5" ry="26.5" width="1" height="53" fill="#71fe8a">
    <animate attributeName="opacity" values="1;0" keyTimes="0;1" dur="0.9174311926605504s" begin="-0.2540578687367678s" repeatCount="indefinite"></animate>
  </rect>
</g><g transform="rotate(260.3076923076923 50 50)">
  <rect x="49.5" y="14.5" rx="0.5" ry="26.5" width="1" height="53" fill="#71fe8a">
    <animate attributeName="opacity" values="1;0" keyTimes="0;1" dur="0.9174311926605504s" begin="-0.23994354269583623s" repeatCount="indefinite"></animate>
  </rect>
</g><g transform="rotate(265.84615384615387 50 50)">
  <rect x="49.5" y="14.5" rx="0.5" ry="26.5" width="1" height="53" fill="#71fe8a">
    <animate attributeName="opacity" values="1;0" keyTimes="0;1" dur="0.9174311926605504s" begin="-0.2258292166549047s" repeatCount="indefinite"></animate>
  </rect>
</g><g transform="rotate(271.38461538461536 50 50)">
  <rect x="49.5" y="14.5" rx="0.5" ry="26.5" width="1" height="53" fill="#71fe8a">
    <animate attributeName="opacity" values="1;0" keyTimes="0;1" dur="0.9174311926605504s" begin="-0.21171489061397317s" repeatCount="indefinite"></animate>
  </rect>
</g><g transform="rotate(276.9230769230769 50 50)">
  <rect x="49.5" y="14.5" rx="0.5" ry="26.5" width="1" height="53" fill="#71fe8a">
    <animate attributeName="opacity" values="1;0" keyTimes="0;1" dur="0.9174311926605504s" begin="-0.19760056457304162s" repeatCount="indefinite"></animate>
  </rect>
</g><g transform="rotate(282.46153846153845 50 50)">
  <rect x="49.5" y="14.5" rx="0.5" ry="26.5" width="1" height="53" fill="#71fe8a">
    <animate attributeName="opacity" values="1;0" keyTimes="0;1" dur="0.9174311926605504s" begin="-0.18348623853211007s" repeatCount="indefinite"></animate>
  </rect>
</g><g transform="rotate(288 50 50)">
  <rect x="49.5" y="14.5" rx="0.5" ry="26.5" width="1" height="53" fill="#71fe8a">
    <animate attributeName="opacity" values="1;0" keyTimes="0;1" dur="0.9174311926605504s" begin="-0.16937191249117853s" repeatCount="indefinite"></animate>
  </rect>
</g><g transform="rotate(293.53846153846155 50 50)">
  <rect x="49.5" y="14.5" rx="0.5" ry="26.5" width="1" height="53" fill="#71fe8a">
    <animate attributeName="opacity" values="1;0" keyTimes="0;1" dur="0.9174311926605504s" begin="-0.15525758645024698s" repeatCount="indefinite"></animate>
  </rect>
</g><g transform="rotate(299.0769230769231 50 50)">
  <rect x="49.5" y="14.5" rx="0.5" ry="26.5" width="1" height="53" fill="#71fe8a">
    <animate attributeName="opacity" values="1;0" keyTimes="0;1" dur="0.9174311926605504s" begin="-0.14114326040931544s" repeatCount="indefinite"></animate>
  </rect>
</g><g transform="rotate(304.61538461538464 50 50)">
  <rect x="49.5" y="14.5" rx="0.5" ry="26.5" width="1" height="53" fill="#71fe8a">
    <animate attributeName="opacity" values="1;0" keyTimes="0;1" dur="0.9174311926605504s" begin="-0.1270289343683839s" repeatCount="indefinite"></animate>
  </rect>
</g><g transform="rotate(310.15384615384613 50 50)">
  <rect x="49.5" y="14.5" rx="0.5" ry="26.5" width="1" height="53" fill="#71fe8a">
    <animate attributeName="opacity" values="1;0" keyTimes="0;1" dur="0.9174311926605504s" begin="-0.11291460832745236s" repeatCount="indefinite"></animate>
  </rect>
</g><g transform="rotate(315.6923076923077 50 50)">
  <rect x="49.5" y="14.5" rx="0.5" ry="26.5" width="1" height="53" fill="#71fe8a">
    <animate attributeName="opacity" values="1;0" keyTimes="0;1" dur="0.9174311926605504s" begin="-0.09880028228652081s" repeatCount="indefinite"></animate>
  </rect>
</g><g transform="rotate(321.2307692307692 50 50)">
  <rect x="49.5" y="14.5" rx="0.5" ry="26.5" width="1" height="53" fill="#71fe8a">
    <animate attributeName="opacity" values="1;0" keyTimes="0;1" dur="0.9174311926605504s" begin="-0.08468595624558926s" repeatCount="indefinite"></animate>
  </rect>
</g><g transform="rotate(326.7692307692308 50 50)">
  <rect x="49.5" y="14.5" rx="0.5" ry="26.5" width="1" height="53" fill="#71fe8a">
    <animate attributeName="opacity" values="1;0" keyTimes="0;1" dur="0.9174311926605504s" begin="-0.07057163020465772s" repeatCount="indefinite"></animate>
  </rect>
</g><g transform="rotate(332.3076923076923 50 50)">
  <rect x="49.5" y="14.5" rx="0.5" ry="26.5" width="1" height="53" fill="#71fe8a">
    <animate attributeName="opacity" values="1;0" keyTimes="0;1" dur="0.9174311926605504s" begin="-0.05645730416372618s" repeatCount="indefinite"></animate>
  </rect>
</g><g transform="rotate(337.84615384615387 50 50)">
  <rect x="49.5" y="14.5" rx="0.5" ry="26.5" width="1" height="53" fill="#71fe8a">
    <animate attributeName="opacity" values="1;0" keyTimes="0;1" dur="0.9174311926605504s" begin="-0.04234297812279463s" repeatCount="indefinite"></animate>
  </rect>
</g><g transform="rotate(343.38461538461536 50 50)">
  <rect x="49.5" y="14.5" rx="0.5" ry="26.5" width="1" height="53" fill="#71fe8a">
    <animate attributeName="opacity" values="1;0" keyTimes="0;1" dur="0.9174311926605504s" begin="-0.02822865208186309s" repeatCount="indefinite"></animate>
  </rect>
</g><g transform="rotate(348.9230769230769 50 50)">
  <rect x="49.5" y="14.5" rx="0.5" ry="26.5" width="1" height="53" fill="#71fe8a">
    <animate attributeName="opacity" values="1;0" keyTimes="0;1" dur="0.9174311926605504s" begin="-0.014114326040931545s" repeatCount="indefinite"></animate>
  </rect>
</g><g transform="rotate(354.46153846153845 50 50)">
  <rect x="49.5" y="14.5" rx="0.5" ry="26.5" width="1" height="53" fill="#71fe8a">
    <animate attributeName="opacity" values="1;0" keyTimes="0;1" dur="0.9174311926605504s" begin="0s" repeatCount="indefinite"></animate>
  </rect>
</g>
<!-- [ldio] generated by https://loading.io/ --></svg>